<svg width="18" height="15" viewBox="0 0 18 15" fill="none" xmlns="http://www.w3.org/2000/svg">
<path d="M8.8725 4.75L11.25 7.12V7C11.25 6.40326 11.0129 5.83097 10.591 5.40901C10.169 4.98705 9.59674 4.75 9 4.75H8.8725ZM5.6475 5.35L6.81 6.5125C6.7725 6.67 6.75 6.8275 6.75 7C6.75 7.59674 6.98705 8.16903 7.40901 8.59099C7.83097 9.01295 8.40326 9.25 9 9.25C9.165 9.25 9.33 9.2275 9.4875 9.19L10.65 10.3525C10.1475 10.6 9.5925 10.75 9 10.75C8.00544 10.75 7.05161 10.3549 6.34835 9.65165C5.64509 8.94839 5.25 7.99456 5.25 7C5.25 6.4075 5.4 5.8525 5.6475 5.35ZM1.5 1.2025L3.21 2.9125L3.5475 3.25C2.31 4.225 1.335 5.5 0.75 7C2.0475 10.2925 5.25 12.625 9 12.625C10.1625 12.625 11.2725 12.4 12.285 11.995L12.6075 12.31L14.7975 14.5L15.75 13.5475L2.4525 0.25M9 3.25C9.99456 3.25 10.9484 3.64509 11.6517 4.34835C12.3549 5.05161 12.75 6.00544 12.75 7C12.75 7.48 12.6525 7.945 12.48 8.365L14.6775 10.5625C15.8025 9.625 16.7025 8.395 17.25 7C15.9525 3.7075 12.75 1.375 9 1.375C7.95 1.375 6.945 1.5625 6 1.9L7.6275 3.5125C8.055 3.3475 8.5125 3.25 9 3.25Z" fill="#EF4444"/>
</svg>
