<svg width="18" height="18" viewBox="0 0 18 18" fill="none" xmlns="http://www.w3.org/2000/svg">
<path d="M8.8725 6.75L11.25 9.12V9C11.25 8.40326 11.0129 7.83097 10.591 7.40901C10.169 6.98705 9.59674 6.75 9 6.75H8.8725ZM5.6475 7.35L6.81 8.5125C6.7725 8.67 6.75 8.8275 6.75 9C6.75 9.59674 6.98705 10.169 7.40901 10.591C7.83097 11.0129 8.40326 11.25 9 11.25C9.165 11.25 9.33 11.2275 9.4875 11.19L10.65 12.3525C10.1475 12.6 9.5925 12.75 9 12.75C8.00544 12.75 7.05161 12.3549 6.34835 11.6517C5.64509 10.9484 5.25 9.99456 5.25 9C5.25 8.4075 5.4 7.8525 5.6475 7.35ZM1.5 3.2025L3.21 4.9125L3.5475 5.25C2.31 6.225 1.335 7.5 0.75 9C2.0475 12.2925 5.25 14.625 9 14.625C10.1625 14.625 11.2725 14.4 12.285 13.995L12.6075 14.31L14.7975 16.5L15.75 15.5475L2.4525 2.25M9 5.25C9.99456 5.25 10.9484 5.64509 11.6517 6.34835C12.3549 7.05161 12.75 8.00544 12.75 9C12.75 9.48 12.6525 9.945 12.48 10.365L14.6775 12.5625C15.8025 11.625 16.7025 10.395 17.25 9C15.9525 5.7075 12.75 3.375 9 3.375C7.95 3.375 6.945 3.5625 6 3.9L7.6275 5.5125C8.055 5.3475 8.5125 5.25 9 5.25Z" fill="black"/>
</svg>
